<svg width="201" height="41" viewBox="0 0 201 41" fill="none" xmlns="http://www.w3.org/2000/svg">
<path d="M15.8427 0.25C14.3004 0.25 12.8796 1.12899 12.2123 2.51804C5.55533 16.3379 1.75253 28.9013 0.139699 34.8809C-0.416726 36.9433 0.736004 39.0645 2.76212 39.7398L3.67563 40.043C4.6897 40.3797 5.79527 40.3043 6.75087 39.8265L7.45569 39.4721C8.59274 38.9036 9.3897 37.8457 9.61348 36.5937C10.3917 32.2411 12.6594 21.2853 17.3547 10.3302C18.7276 13.5334 19.8702 16.7146 20.8513 19.7528L15.0749 22.5878C13.9459 26.2771 13.143 29.5849 12.5785 32.1049L23.8596 30.7307C24.4106 33.1368 24.8559 35.2508 25.096 36.5937C25.3198 37.8457 26.1167 38.9036 27.2538 39.4721L27.9586 39.8225C28.9162 40.3023 30.0198 40.3817 31.0338 40.043L31.9473 39.7398C33.9735 39.0645 35.1281 36.9433 34.5737 34.8809C32.9609 28.9013 29.1581 16.3379 22.5011 2.51804C21.8318 1.12899 20.413 0.25 18.8707 0.25H15.8427Z" fill="#BF2223"/>
<path d="M51.996 31.5464H47.6759L55.5415 9.20426H60.5379L68.4144 31.5464H64.0944L58.127 13.7862H57.9524L51.996 31.5464ZM52.1378 22.7863H63.9198V26.0373H52.1378V22.7863Z" fill="black"/>
<path d="M85.4411 9.20426H89.4884V23.8009C89.4884 25.4009 89.1102 26.8082 88.3538 28.0228C87.6047 29.2373 86.5502 30.1864 85.1902 30.8701C83.8301 31.5464 82.241 31.8846 80.4228 31.8846C78.5973 31.8846 77.0046 31.5464 75.6445 30.8701C74.2845 30.1864 73.23 29.2373 72.4809 28.0228C71.7317 26.8082 71.3572 25.4009 71.3572 23.8009V9.20426H75.4045V23.4627C75.4045 24.3936 75.6082 25.2227 76.0155 25.95C76.43 26.6773 77.0118 27.2482 77.7609 27.6627C78.51 28.07 79.3973 28.2737 80.4228 28.2737C81.4483 28.2737 82.3356 28.07 83.0847 27.6627C83.841 27.2482 84.4229 26.6773 84.8301 25.95C85.2374 25.2227 85.4411 24.3936 85.4411 23.4627V9.20426Z" fill="black"/>
<path d="M92.9057 12.597V9.20426H110.731V12.597H103.826V31.5464H99.8113V12.597H92.9057Z" fill="black"/>
<path d="M133.142 20.3754C133.142 22.7827 132.691 24.8445 131.789 26.5609C130.895 28.27 129.673 29.5791 128.124 30.4882C126.582 31.3974 124.833 31.8519 122.876 31.8519C120.92 31.8519 119.167 31.3974 117.618 30.4882C116.076 29.5719 114.854 28.2591 113.952 26.55C113.058 24.8336 112.611 22.7754 112.611 20.3754C112.611 17.968 113.058 15.9098 113.952 14.2007C114.854 12.4843 116.076 11.1716 117.618 10.2625C119.167 9.35336 120.92 8.8988 122.876 8.8988C124.833 8.8988 126.582 9.35336 128.124 10.2625C129.673 11.1716 130.895 12.4843 131.789 14.2007C132.691 15.9098 133.142 17.968 133.142 20.3754ZM129.073 20.3754C129.073 18.6808 128.807 17.2517 128.276 16.088C127.753 14.9171 127.025 14.0334 126.094 13.4371C125.164 12.8334 124.091 12.5316 122.876 12.5316C121.662 12.5316 120.589 12.8334 119.658 13.4371C118.727 14.0334 117.996 14.9171 117.465 16.088C116.942 17.2517 116.68 18.6808 116.68 20.3754C116.68 22.0699 116.942 23.5027 117.465 24.6736C117.996 25.8373 118.727 26.7209 119.658 27.3246C120.589 27.9209 121.662 28.2191 122.876 28.2191C124.091 28.2191 125.164 27.9209 126.094 27.3246C127.025 26.7209 127.753 25.8373 128.276 24.6736C128.807 23.5027 129.073 22.0699 129.073 20.3754Z" fill="black"/>
<path d="M156.092 16.7426H152.012C151.896 16.0735 151.681 15.4807 151.369 14.9644C151.056 14.4407 150.667 13.9971 150.201 13.6334C149.736 13.2698 149.205 12.9971 148.608 12.8152C148.019 12.6261 147.383 12.5316 146.699 12.5316C145.485 12.5316 144.408 12.8371 143.47 13.448C142.532 14.0516 141.797 14.9389 141.267 16.1098C140.736 17.2735 140.47 18.6953 140.47 20.3754C140.47 22.0845 140.736 23.5245 141.267 24.6954C141.805 25.8591 142.539 26.7391 143.47 27.3355C144.408 27.9246 145.481 28.2191 146.688 28.2191C147.358 28.2191 147.983 28.1318 148.565 27.9573C149.154 27.7755 149.681 27.51 150.147 27.1609C150.619 26.8118 151.016 26.3827 151.336 25.8736C151.663 25.3645 151.889 24.7827 152.012 24.1281L156.092 24.15C155.939 25.2118 155.609 26.2082 155.099 27.1391C154.598 28.07 153.939 28.8919 153.125 29.6046C152.31 30.3101 151.358 30.8628 150.267 31.2628C149.176 31.6555 147.965 31.8519 146.634 31.8519C144.67 31.8519 142.917 31.3974 141.376 30.4882C139.834 29.5791 138.619 28.2664 137.732 26.55C136.845 24.8336 136.401 22.7754 136.401 20.3754C136.401 17.968 136.848 15.9098 137.743 14.2007C138.637 12.4843 139.856 11.1716 141.397 10.2625C142.939 9.35336 144.685 8.8988 146.634 8.8988C147.878 8.8988 149.034 9.07335 150.103 9.42245C151.172 9.77155 152.125 10.2843 152.961 10.9607C153.798 11.6298 154.485 12.4516 155.023 13.4262C155.569 14.3934 155.925 15.4989 156.092 16.7426Z" fill="black"/>
<path d="M162.398 31.5464H158.078L165.943 9.20426H170.94L178.816 31.5464H174.496L168.529 13.7862H168.354L162.398 31.5464ZM162.54 22.7863H174.322V26.0373H162.54V22.7863Z" fill="black"/>
<path d="M189.33 31.5464H181.759V9.20426H189.483C191.701 9.20426 193.606 9.65154 195.199 10.5461C196.799 11.4334 198.028 12.7098 198.887 14.3753C199.745 16.0407 200.174 18.0335 200.174 20.3535C200.174 22.6808 199.741 24.6809 198.876 26.3536C198.017 28.0264 196.777 29.31 195.156 30.2046C193.541 31.0992 191.599 31.5464 189.33 31.5464ZM185.806 28.0446H189.134C190.69 28.0446 191.988 27.7609 193.028 27.1936C194.068 26.6191 194.85 25.7645 195.374 24.63C195.897 23.4881 196.159 22.0627 196.159 20.3535C196.159 18.6444 195.897 17.2262 195.374 16.0989C194.85 14.9644 194.076 14.1171 193.05 13.5571C192.032 12.9898 190.766 12.7061 189.254 12.7061H185.806V28.0446Z" fill="black"/>
</svg>
