<svg width="194" height="42" viewBox="0 0 194 42" fill="none" xmlns="http://www.w3.org/2000/svg">
<path d="M6.76509 12.1074C8.66835 11.6327 10.7855 12.9885 10.5673 15.0885C10.3235 17.4751 7.02171 18.8694 4.93026 18.3219C3.0826 17.8386 1.67547 16.1791 1.20928 14.3315C0.589118 11.8679 1.36753 8.81417 3.27507 7.09054C4.71214 5.79461 6.71805 5.25143 8.65125 5.31987C13.4971 5.49095 17.4191 8.80989 22.0083 9.93902C24.8225 10.6319 27.7523 10.3753 30.5409 9.69523C33.3295 9.01519 35.7759 7.62516 38.4448 7.08626C42.3839 6.29074 47.0715 6.91518 49.86 10.0716C53.9146 14.6565 53.3244 23.4201 46.8918 25.5629C43.9963 26.5295 40.4678 25.4688 38.7997 22.9068C37.6963 21.2132 37.4525 19.049 37.893 17.0773C38.5089 14.3187 40.9511 12.0604 43.9578 12.749C45.2409 13.0441 46.4213 13.7413 47.0458 14.9303C47.7943 16.3545 47.8969 18.1508 46.7806 19.4382C45.7242 20.6572 44.0947 20.6016 42.7132 20.0071" stroke="black" stroke-width="2" stroke-miterlimit="10" stroke-linecap="round"/>
<path d="M10.9308 5.63198C12.9196 5.93992 15.1821 7.92872 15.8108 10.3794C16.3497 12.4709 16.153 14.6693 16.2171 16.8035C16.3369 20.9564 16.6192 25.1522 17.8253 29.1298C19.0229 33.0817 21.2169 36.8754 24.6043 39.3347C26.1269 40.4381 28.0088 41.2721 29.8522 40.9172C29.5357 30.9389 29.2149 20.9607 28.8984 10.9868C28.8385 9.07924 28.7787 7.16742 28.7145 5.25988C30.3098 4.84501 31.9479 4.50713 33.5218 4.04949C36.3618 3.22831 39.0306 2.14196 41.8534 1.50896C43.0809 1.23523 44.3426 1.04277 45.6557 1" stroke="black" stroke-width="2" stroke-miterlimit="10" stroke-linecap="round"/>
<path d="M23.8603 38.5563C23.7362 30.2761 23.6122 21.9958 23.0819 13.7327C22.8766 10.572 22.7825 8.06994 22.0981 3.92981" stroke="black" stroke-width="2" stroke-miterlimit="10" stroke-linecap="round"/>
<path d="M42.0117 6.58155V1.50476" stroke="black" stroke-width="2" stroke-miterlimit="10" stroke-linecap="round"/>
<path d="M29.5229 16.7265L38.7484 14.8104" stroke="black" stroke-width="2" stroke-miterlimit="10" stroke-linecap="round"/>
<path d="M29.3091 21.3372L37.3284 19.4211" stroke="black" stroke-width="2" stroke-miterlimit="10" stroke-linecap="round"/>
<path d="M29.5229 25.8066L34.7922 24.1642L38.804 22.9068" stroke="black" stroke-width="2" stroke-miterlimit="10" stroke-linecap="round"/>
<path d="M34.326 15.7301L34.3003 12.1631" stroke="black" stroke-width="2" stroke-miterlimit="10" stroke-linecap="round"/>
<path d="M34.5154 39.228L34.4084 24.1089" stroke="black" stroke-width="2" stroke-miterlimit="10" stroke-linecap="round"/>
<path d="M39.8134 37.0207V24.0828" stroke="black" stroke-width="2" stroke-miterlimit="10" stroke-linecap="round"/>
<path d="M39.8134 13.8096V10.4607" stroke="black" stroke-width="2" stroke-miterlimit="10" stroke-linecap="round"/>
<path d="M59.8889 29.3333V26.9028L60.3466 26.8791C60.9674 26.8423 61.4593 26.6187 61.8223 26.2083C62.1906 25.798 62.4615 25.1377 62.6351 24.2276C62.814 23.3174 62.9324 22.0969 62.9902 20.566L63.2585 13.1717H73.8488V29.3333H70.9842V15.5786H65.989L65.7365 21.4735C65.6628 23.2411 65.4681 24.7063 65.1525 25.869C64.8421 27.0317 64.3318 27.8997 63.6216 28.4732C62.9166 29.0466 61.9354 29.3333 60.6781 29.3333H59.8889Z" fill="black"/>
<path d="M77.0409 13.1717H79.9449V24.1881H80.0949L87.6943 13.1717H90.3222V29.3333H87.3944V18.3248H87.2603L79.6372 29.3333H77.0409V13.1717Z" fill="black"/>
<path d="M93.5123 29.3333V13.1717H99.5729C100.814 13.1717 101.856 13.4032 102.698 13.8661C103.545 14.3291 104.184 14.9657 104.615 15.7759C105.052 16.5808 105.27 17.4962 105.27 18.5221C105.27 19.5585 105.052 20.4792 104.615 21.2841C104.179 22.089 103.534 22.7229 102.682 23.1859C101.83 23.6436 100.78 23.8725 99.5334 23.8725H95.5167V21.4656H99.1388C99.8648 21.4656 100.459 21.3393 100.922 21.0868C101.385 20.8343 101.727 20.487 101.948 20.0451C102.174 19.6032 102.288 19.0955 102.288 18.5221C102.288 17.9486 102.174 17.4436 101.948 17.0069C101.727 16.5703 101.383 16.2309 100.914 15.9889C100.451 15.7417 99.8543 15.618 99.1231 15.618H96.44V29.3333H93.5123Z" fill="black"/>
<path d="M108.088 29.3333H104.963L110.652 13.1717H114.267L119.964 29.3333H116.839L112.523 16.4861H112.396L108.088 29.3333ZM108.19 22.9965H116.713V25.3482H108.19V22.9965Z" fill="black"/>
<path d="M129.314 20.0767V22.4283H122.038V20.0767H129.314Z" fill="black"/>
<path d="M146.278 18.6247H143.327C143.243 18.1407 143.087 17.7119 142.861 17.3384C142.635 16.9596 142.354 16.6387 142.017 16.3756C141.68 16.1126 141.296 15.9153 140.865 15.7838C140.439 15.647 139.978 15.5786 139.484 15.5786C138.605 15.5786 137.826 15.7995 137.148 16.2415C136.469 16.6781 135.938 17.32 135.554 18.167C135.17 19.0087 134.978 20.0372 134.978 21.2525C134.978 22.4888 135.17 23.5305 135.554 24.3775C135.943 25.2193 136.474 25.8558 137.148 26.2872C137.826 26.7134 138.602 26.9264 139.476 26.9264C139.96 26.9264 140.412 26.8633 140.833 26.737C141.259 26.6055 141.641 26.4135 141.977 26.161C142.319 25.9084 142.606 25.5981 142.838 25.2298C143.074 24.8615 143.237 24.4406 143.327 23.9672L146.278 23.9829C146.168 24.751 145.928 25.4718 145.56 26.1452C145.197 26.8186 144.721 27.4131 144.132 27.9287C143.543 28.439 142.853 28.8388 142.064 29.1281C141.275 29.4122 140.399 29.5543 139.436 29.5543C138.016 29.5543 136.748 29.2255 135.633 28.5679C134.517 27.9102 133.639 26.9606 132.997 25.7191C132.355 24.4775 132.034 22.9886 132.034 21.2525C132.034 19.5111 132.358 18.0223 133.005 16.786C133.652 15.5444 134.533 14.5948 135.648 13.9372C136.764 13.2796 138.026 12.9507 139.436 12.9507C140.336 12.9507 141.172 13.077 141.946 13.3295C142.719 13.5821 143.408 13.953 144.013 14.4422C144.618 14.9262 145.116 15.5207 145.505 16.2257C145.899 16.9254 146.157 17.7251 146.278 18.6247Z" fill="black"/>
<path d="M150.839 29.3333H147.714L153.404 13.1717H157.018L162.716 29.3333H159.591L155.274 16.4861H155.148L150.839 29.3333ZM150.942 22.9965H159.465V25.3482H150.942V22.9965Z" fill="black"/>
<path d="M178.031 13.1717V29.3333H175.127V15.6023H168.057V29.3333H165.152V13.1717H178.031Z" fill="black"/>
<path d="M181.533 29.3333V13.1717H187.594C188.835 13.1717 189.877 13.4032 190.719 13.8661C191.566 14.3291 192.205 14.9657 192.636 15.7759C193.073 16.5808 193.291 17.4962 193.291 18.5221C193.291 19.5585 193.073 20.4792 192.636 21.2841C192.2 22.089 191.555 22.7229 190.703 23.1859C189.851 23.6436 188.801 23.8725 187.554 23.8725H183.538V21.4656H187.16C187.886 21.4656 188.48 21.3393 188.943 21.0868C189.406 20.8343 189.748 20.487 189.969 20.0451C190.195 19.6032 190.308 19.0955 190.308 18.5221C190.308 17.9486 190.195 17.4436 189.969 17.0069C189.748 16.5703 189.403 16.2309 188.935 15.9889C188.472 15.7417 187.875 15.618 187.144 15.618H184.461V29.3333H181.533Z" fill="black"/>
</svg>
