<svg width="131" height="40" viewBox="0 0 131 40" fill="none" xmlns="http://www.w3.org/2000/svg">
<path d="M16.4911 0.359482C15.8502 0.554868 15.2953 0.742438 15.2641 0.765884C15.2328 0.797146 14.9124 2.84479 14.545 5.30665L13.8807 9.80052L15.4595 12.5594C16.327 14.0756 17.0538 15.3104 17.0851 15.3026C17.1163 15.2869 18.8435 13.7708 20.9381 11.9341L24.7285 8.58131L24.4316 8.18272C24.2753 7.95608 22.9857 6.18979 21.5711 4.25938C20.1643 2.32115 18.8982 0.625206 18.7654 0.476713C18.4997 0.195358 18.1245 -2.7609e-05 17.8432 -2.7609e-05C17.7416 0.00778782 17.1398 0.164096 16.4911 0.359482Z" fill="#091C66"/>
<path d="M9.26177 2.58688C7.47985 3.14178 5.8855 3.63415 5.72138 3.67323C5.34624 3.78264 4.91639 4.15778 4.81479 4.47821C4.74445 4.69705 2.45453 19.9449 2.48579 19.984C2.51705 20.0153 9.76977 21.0782 9.80103 21.0547C9.82448 21.0391 12.6927 1.78189 12.7006 1.61777C12.7006 1.58651 12.6537 1.56306 12.6068 1.57088C12.5521 1.57088 11.0437 2.03199 9.26177 2.58688Z" fill="#091C66"/>
<path d="M19.461 16.5062C16.3661 19.2963 13.8261 21.6097 13.8105 21.641C13.8026 21.6644 15.1547 21.8832 16.8272 22.1177L19.8596 22.5554L21.6103 21.0782C24.3535 18.7727 24.8771 18.3038 25.01 18.0537C25.1116 17.8583 25.1272 17.3815 25.1116 14.6227L25.0881 11.4262L19.461 16.5062Z" fill="#091C66"/>
<path d="M2.11072 22.4459C1.99349 22.8289 -0.0385208 37.0451 0.000556371 37.2562C0.0474489 37.5297 0.352251 37.9361 0.594529 38.069C0.766468 38.1549 5.79179 38.9208 6.22163 38.9208C6.5577 38.9208 6.97192 38.6629 7.15949 38.3347C7.26109 38.1706 7.60497 36.0448 8.36306 30.91C8.9414 26.9554 9.43377 23.6495 9.44159 23.5713C9.45722 23.4307 9.20713 23.3838 5.9012 22.8914C3.94735 22.5944 2.29829 22.3599 2.24358 22.3521C2.18888 22.3521 2.13417 22.399 2.11072 22.4459Z" fill="#091C66"/>
<path d="M11.8019 23.8605C11.7316 24.0871 11.0516 28.9327 11.0751 29.0656C11.1063 29.2375 22.7591 39.6789 23.1577 39.8899C23.3531 39.9915 23.525 40.0228 23.7517 39.9837C24.1268 39.9368 27.4015 38.7489 27.6828 38.5691C27.9798 38.3659 28.1752 37.983 28.1752 37.5766C28.1752 37.2718 28.1205 37.1311 27.8391 36.7169C27.4093 36.0995 19.5704 24.9859 19.5313 24.939C19.5157 24.9234 17.8901 24.6655 15.9284 24.3763C13.9589 24.0871 12.2317 23.8292 12.0911 23.8058C11.9269 23.7823 11.8253 23.798 11.8019 23.8605Z" fill="#091C66"/>
<path d="M45 31V8H53.1253C54.8913 8 56.3568 8.30697 57.5218 8.9209C58.6943 9.53483 59.5699 10.3846 60.1486 11.4702C60.7274 12.5483 61.0168 13.7949 61.0168 15.21C61.0168 16.6175 60.7237 17.8566 60.1375 18.9272C59.5587 19.9904 58.6831 20.8177 57.5107 21.4092C56.3457 22.0007 54.8802 22.2964 53.1142 22.2964H46.959V19.3091H52.8025C53.9155 19.3091 54.8208 19.1481 55.5183 18.8262C56.2233 18.5042 56.739 18.0363 57.0655 17.4224C57.392 16.8084 57.5552 16.071 57.5552 15.21C57.5552 14.3415 57.3883 13.589 57.0544 12.9526C56.7279 12.3162 56.2121 11.8296 55.5072 11.4927C54.8097 11.1483 53.8933 10.9761 52.758 10.9761H48.4393V31H45ZM56.253 20.623L61.885 31H57.9671L52.4463 20.623H56.253Z" fill="black"/>
<path d="M65.2019 31V8H79.4935V10.9873H68.6412V17.9951H78.7478V20.9712H68.6412V28.0127H79.6271V31H65.2019Z" fill="black"/>
<path d="M86.08 8L92.4244 26.7324H92.6804L99.0248 8H102.742L94.5392 31H90.5656L82.3624 8H86.08Z" fill="black"/>
<path d="M109.474 8V31H106.034V8H109.474Z" fill="black"/>
<path d="M113.358 10.9873V8H131V10.9873H123.888V31H120.459V10.9873H113.358Z" fill="black"/>
</svg>
