<svg width="122" height="40" viewBox="0 0 122 40" fill="none" xmlns="http://www.w3.org/2000/svg">
<path d="M20.3754 0.766052H38.9666V19.1928L20.3754 0.766052Z" fill="#D81921"/>
<path d="M18.5964 39.2289H0V20.8022L18.5964 39.2289Z" fill="#D81921"/>
<path d="M39.3816 32.7161C38.6669 35.1479 36.9754 37.3947 34.6772 38.3664C33.2376 38.9731 31.7877 38.9166 29.9985 38.9166H21.6952C23.4227 37.0811 24.1528 35.4307 22.1785 33.441C18.7338 29.9603 15.1399 26.6749 11.6181 23.2662C10.4664 22.1556 9.31473 21.0451 8.1682 19.9294C8.08593 19.842 7.99853 19.7598 7.91113 19.6724C7.64892 19.405 7.37642 19.1325 7.10907 18.8652L3.82372 15.5952C3.27359 15.0502 2.72347 14.5053 2.17848 13.9654C2.1065 13.8934 1.0011 12.5464 1.0011 12.5258C0.0962166 10.8754 -0.109439 8.82917 0.425265 7.02454C1.13992 4.59266 2.82629 2.34587 5.1245 1.37415C6.56923 0.762326 8.0191 0.818882 9.8083 0.818882H15.2839C16.1476 0.818882 17.5152 0.818882 18.1116 0.824023C16.3841 2.65436 15.6541 4.30474 17.6284 6.2996C21.0731 9.77518 24.6669 13.0657 28.1888 16.4693C29.289 17.5387 30.3996 18.6029 31.4998 19.6724C31.5821 19.7598 31.6695 19.842 31.7569 19.9294C32.0654 20.2431 32.3841 20.5618 32.6978 20.8754L35.9831 24.1454C37.0577 25.2148 38.235 26.2739 38.96 27.6415C39.7775 29.1736 39.87 31.0605 39.3816 32.7161V32.7161Z" fill="#D81921"/>
<path d="M49.7994 20.8123V40C44.73 39.4036 40.8123 35.3316 40.8123 30.4062C40.8123 25.4807 44.73 21.4087 49.7994 20.8123V20.8123Z" fill="#2161AD"/>
<path d="M51.2699 20.8123V40C56.3393 39.4036 60.257 35.3316 60.257 30.4062C60.257 25.4807 56.3393 21.4087 51.2699 20.8123V20.8123Z" fill="#2161AD"/>
<path d="M93.5116 9.76354C93.5116 14.7661 89.6093 18.8895 84.6016 19.3882V0.138855C89.6093 0.63757 93.5116 4.75582 93.5116 9.76354Z" fill="#1F5BA3"/>
<path d="M49.8868 0.241577V19.4498C44.7763 18.8894 40.8123 14.8071 40.8123 9.84569C40.8123 4.88425 44.7763 0.801989 49.8868 0.241577V0.241577Z" fill="#2161AD"/>
<path d="M83.2082 0.0875244H75.9845V19.4654H83.2082V0.0875244Z" fill="#2161AD"/>
<path d="M88.8947 25.9589H83.3214V39.2648H88.8947V25.9589Z" fill="#2161AD"/>
<path d="M86.1595 25.2185C87.4487 25.2185 88.4937 24.1734 88.4937 22.8843C88.4937 21.5952 87.4487 20.5501 86.1595 20.5501C84.8704 20.5501 83.8253 21.5952 83.8253 22.8843C83.8253 24.1734 84.8704 25.2185 86.1595 25.2185Z" fill="#2161AD"/>
<path d="M50.91 0.25708H56.8226V6.68382L50.91 0.25708Z" fill="#2161AD"/>
<path d="M50.7919 19.4757H56.7045V13.049L50.7919 19.4757Z" fill="#2161AD"/>
<path d="M74.7918 18.7352H67.5168L65.9589 12.9357H64.0566L65.5271 19.0797H57.8458L62.0566 4.57582L63.7584 11.6864H65.6196L62.6839 0.766052H70.36L74.7918 18.7352Z" fill="#2161AD"/>
<path d="M104.931 34.0978V36.7199C103.481 38.2572 101.285 39.2392 98.8278 39.2392C98.6222 39.2392 98.4216 39.2392 98.2211 39.2186C94.1491 38.9513 90.9409 35.9847 90.9409 32.3703C90.9409 29.851 92.5039 27.6453 94.833 26.4577C95.8407 25.9384 96.9923 25.6093 98.2211 25.5322V36.8639C98.7455 37.0695 99.306 37.1775 99.8818 37.1775C101.81 37.1775 103.522 35.959 104.56 34.0978H104.931V34.0978Z" fill="#2161AD"/>
<path d="M120.967 34.0978V36.7199C119.517 38.2572 117.321 39.2392 114.864 39.2392C114.658 39.2392 114.458 39.2392 114.257 39.2186C110.185 38.9513 106.977 35.9847 106.977 32.3703C106.977 29.851 108.54 27.6453 110.869 26.4577C111.877 25.9384 113.028 25.6093 114.257 25.5322V36.8639C114.782 37.0695 115.342 37.1775 115.918 37.1775C117.846 37.1775 119.558 35.959 120.596 34.0978H120.967V34.0978Z" fill="#2161AD"/>
<path d="M99.0129 25.5477H104.411V30.725L99.0129 25.5477Z" fill="#2161AD"/>
<path d="M121.172 31.8971C121.172 32.3085 121.136 32.7198 121.049 33.1208H115.645V26.2365C115.645 26.0668 115.645 25.9023 115.645 25.7326C115.645 25.5218 115.82 25.5578 115.969 25.5887C117.357 25.8869 119.039 26.874 119.964 28.1542C120.735 29.2185 121.167 30.5655 121.172 31.8971V31.8971Z" fill="#2161AD"/>
<path d="M71.1259 25.928V26.9563H68.6529V39.0437H63.2802V26.9563H61.4858V25.928H63.7995C63.6298 25.4704 63.5373 24.9717 63.5373 24.4525C63.5373 24.2057 63.5578 23.964 63.599 23.7224C63.7995 22.5553 64.4935 21.5116 65.4756 20.8586C65.9691 20.5296 66.5347 20.2982 67.1208 20.1902C68.7763 19.8869 71.1105 20.7764 71.1105 22.7404C71.1105 24.0309 70.0617 25.0746 68.7763 25.0746C67.7172 25.0746 66.8175 24.3702 66.5347 23.3985H66.3496C66.3342 23.5424 66.329 23.6812 66.329 23.8201C66.329 24.5861 66.5295 25.3059 66.8894 25.928H71.1259V25.928Z" fill="#2161AD"/>
<path d="M81.6454 25.928V26.9563H79.1723V39.0437H73.7996V26.9563H72.0052V25.928H74.3189C74.1492 25.4704 74.0567 24.9717 74.0567 24.4525C74.0567 24.2057 74.0772 23.964 74.1184 23.7224C74.3189 22.5553 75.013 21.5116 75.995 20.8586C76.4885 20.5296 77.0541 20.2982 77.6402 20.1902C79.2957 19.8869 81.6299 20.7764 81.6299 22.7404C81.6299 24.0309 80.5811 25.0746 79.2957 25.0746C78.2366 25.0746 77.3369 24.3702 77.0541 23.3985H76.869C76.8536 23.5424 76.8484 23.6812 76.8484 23.8201C76.8484 24.5861 77.049 25.3059 77.4089 25.928H81.6454V25.928Z" fill="#2161AD"/>
</svg>
