<svg width="161" height="40" viewBox="0 0 161 40" fill="none" xmlns="http://www.w3.org/2000/svg">
<path d="M11.2472 0L32.9689 12.5824L29.632 25.0827H45.4618L52.1629 0H11.2472Z" fill="#006EB7"/>
<path d="M27.6772 14.7806L6.09189 2.28027L0 25.0827H24.9222L27.6772 14.7806Z" fill="#006EB7"/>
<path d="M3.32776 29.6432H23.9265L21.2125 40L3.32776 29.6432Z" fill="#006EB7"/>
<path d="M62.3357 12.5431V9.16803H80.0684V12.5431H73.1989V31.3936H69.2052V12.5431H62.3357Z" fill="black"/>
<path d="M83.4869 31.3936V9.16803H97.9421V12.5431H87.5131V18.577H97.1933V21.9521H87.5131V28.0185H98.029V31.3936H83.4869Z" fill="black"/>
<path d="M102.05 31.3936V9.16803H106.076V19.3801H106.347L115.018 9.16803H119.934L111.339 19.1413L120.01 31.3936H115.17L108.539 21.8652L106.076 24.7737V31.3936H102.05Z" fill="black"/>
<path d="M122.732 31.3936V9.16803H126.758V28.0185H136.547V31.3936H122.732Z" fill="black"/>
<path d="M143.731 31.3936H139.433L147.258 9.16803H152.228L160.063 31.3936H155.766L149.83 13.726H149.656L143.731 31.3936ZM143.872 22.6792H155.592V25.9131H143.872V22.6792Z" fill="black"/>
</svg>
