<svg width="128" height="128" viewBox="0 0 128 128" fill="none" xmlns="http://www.w3.org/2000/svg">
<path d="M61 42H19V54H61L59.9655 48L61 42Z" fill="#EB5B35"/>
<path d="M7 104C7 112.284 14.0834 119 22.8212 119H110C99.6551 117.043 96.5813 113.65 95.3728 104H7Z" fill="#EB5B35"/>
<path fill-rule="evenodd" clip-rule="evenodd" d="M103.389 82.0555L103.389 35L49 82.0555H103.389ZM93.6111 71.6667L93.6111 55.7778L74.6667 71.6667H93.6111Z" fill="#EB5B35"/>
<path d="M34 119H121V9H34V36.5M34 64V104.192" stroke="black"/>
<path d="M114 119C105.716 119 99 112.284 99 104" stroke="black"/>
<path d="M99 104H11C11 112.284 18.0535 119 26.7545 119H99" stroke="black"/>
<path d="M53.3361 82.5L105.5 37.098L105.5 82.5H53.3361Z" stroke="black"/>
<path d="M78.4254 71.5L96.5 57.0403L96.5 71.5H78.4254Z" stroke="black"/>
<path d="M11.5 44.5H20.9603H63.8528L73.9544 50L63.8528 55.5H20.9603H11.5V44.5Z" stroke="black"/>
<path d="M11.5 44.5H20.9603H63.8528L73.9544 50L63.8528 55.5H20.9603H11.5V44.5Z" stroke="black"/>
<path d="M49 21H104.5" stroke="black"/>
<path d="M49 29H79" stroke="black"/>
</svg>
