<svg width="128" height="128" viewBox="0 0 128 128" fill="none" xmlns="http://www.w3.org/2000/svg">
<ellipse cx="57.5269" cy="64" rx="23.8925" ry="35.8387" fill="#EB5B35"/>
<path d="M76.5753 64C76.5753 73.8094 73.8635 82.668 69.5052 89.0602C65.1451 95.4549 59.1735 99.3387 52.6398 99.3387C46.1061 99.3387 40.1344 95.4549 35.7744 89.0602C31.4161 82.668 28.7043 73.8094 28.7043 64C28.7043 54.1907 31.4161 45.3321 35.7744 38.9399C40.1344 32.5452 46.1061 28.6613 52.6398 28.6613C59.1735 28.6613 65.1451 32.5452 69.5052 38.9399C73.8635 45.3321 76.5753 54.1907 76.5753 64Z" stroke="black"/>
<path d="M52.0968 123.731H73.7205C95.9663 123.731 114 96.9886 114 64C114 31.0114 95.9663 4.26883 73.7205 4.26883H52.0968" stroke="black"/>
<path d="M53.1828 123.731C30.9904 123.731 13 96.9886 13 64C13 31.0114 30.9904 4.26883 53.1828 4.26883" stroke="black"/>
<path d="M54.2688 123.731C76.4612 123.731 94.4516 96.9886 94.4516 64C94.4516 31.0114 76.4612 4.26883 54.2688 4.26883" stroke="black"/>
<line x1="79.2473" y1="16.8011" x2="92.2796" y2="16.8011" stroke="black"/>
<line x1="91.1935" y1="24.4032" x2="104.226" y2="24.4032" stroke="black"/>
<line x1="90.1075" y1="38.5215" x2="103.14" y2="38.5215" stroke="black"/>
<line x1="99.8817" y1="49.3817" x2="112.914" y2="49.3817" stroke="black"/>
<line x1="94.4516" y1="61.328" x2="107.484" y2="61.328" stroke="black"/>
<line x1="100.968" y1="72.1882" x2="114" y2="72.1882" stroke="black"/>
<line x1="92.2796" y1="84.1344" x2="105.312" y2="84.1344" stroke="black"/>
<line x1="95.5376" y1="94.9946" x2="108.57" y2="94.9946" stroke="black"/>
<line x1="83.5914" y1="104.769" x2="96.6237" y2="104.769" stroke="black"/>
<line x1="81.4194" y1="115.629" x2="94.4516" y2="115.629" stroke="black"/>
<line x1="77.0753" y1="9.19894" x2="90.1075" y2="9.19894" stroke="black"/>
</svg>
