<svg width="32" height="32" viewBox="0 0 32 32" fill="none" xmlns="http://www.w3.org/2000/svg">
<path d="M10 28L22 28C22.5303 27.9995 23.0387 27.7886 23.4136 27.4136C23.7886 27.0387 23.9995 26.5303 24 26L24 4C23.9994 3.46975 23.7885 2.9614 23.4135 2.58646C23.0386 2.21152 22.5302 2.00061 22 2L10 2C9.46979 2.00071 8.96149 2.21166 8.58658 2.58657C8.21166 2.96149 8.00072 3.46978 8 4L8 26C8.00061 26.5302 8.21152 27.0386 8.58646 27.4135C8.9614 27.7885 9.46975 27.9994 10 28V28ZM10 26L10 24L22 24L22 26L10 26ZM22 4L22 22L10 22L10 4L22 4Z" fill="black"/>
</svg>
