<svg width="98" height="60" viewBox="0 0 98 60" fill="none" xmlns="http://www.w3.org/2000/svg">
<g clip-path="url(#clip0_38_2063)">
<path d="M15.1982 4.09569C15.698 3.22388 16.415 2.49998 17.2777 1.99623C18.1404 1.49248 19.1186 1.22651 20.1146 1.22485H46.3934C47.3935 1.22297 48.3765 1.48722 49.2437 1.9911C50.111 2.49499 50.8321 3.22078 51.3346 4.09569L61.6905 22.2457H63.1152L52.4093 3.47069C51.8004 2.40931 50.9271 1.52799 49.8766 0.914607C48.8261 0.301224 47.6351 -0.0227952 46.4223 -0.0251465H20.1146C18.9019 -0.0223772 17.711 0.301819 16.6606 0.915161C15.6101 1.5285 14.7368 2.40959 14.1276 3.47069L0.98815 26.4999C0.382969 27.5639 0.0644531 28.7701 0.0644531 29.9978C0.0644531 31.2255 0.382969 32.4316 0.98815 33.4957L14.1276 56.5249C14.736 57.587 15.609 58.4692 16.6595 59.0833C17.7101 59.6974 18.9014 60.0221 20.1146 60.0249H46.3934C47.6068 60.0225 48.7982 59.698 49.8488 59.0839C50.8994 58.4697 51.7724 57.5873 52.3805 56.5249L58.1452 46.4124H56.7246L51.3099 55.8999C50.8082 56.7758 50.0874 57.5027 49.22 58.0074C48.3527 58.512 47.3693 58.7767 46.3687 58.7749H20.1146C19.1181 58.7732 18.1395 58.5068 17.2767 58.0022C16.4139 57.4977 15.6971 56.7727 15.1982 55.8999L2.05874 32.8707C1.56277 31.9964 1.3018 31.0059 1.3018 29.9978C1.3018 28.9897 1.56277 27.9992 2.05874 27.1249L15.1982 4.09569Z" fill="#EB5B35"/>
<path d="M78.717 15.2458V44.7917H75.3365V18.1792H72.5159V15.2458H78.717Z" fill="black"/>
<path d="M46.5459 29.9583L54.003 44.7791L49.9265 44.7749L43.5935 31.7916H38.9365V44.7916H35.5518V18.1791H32.7312V15.2458H38.9365V27.8791H43.6059L49.91 15.2208L53.9947 15.2083L46.5459 29.9583Z" fill="black"/>
<path d="M60.6118 41.075C60.3722 41.0684 60.145 40.9661 59.9798 40.7904C59.8147 40.6147 59.725 40.3799 59.7306 40.1375V36.8041C59.7238 36.5669 59.8085 36.3364 59.9669 36.1614C60.1252 35.9863 60.3447 35.8806 60.5788 35.8666H67.5582C68.3588 35.8092 69.1073 35.444 69.6502 34.8459C70.193 34.2477 70.4891 33.462 70.4776 32.65V27.1666C70.4898 26.3267 70.1724 25.5161 69.5951 24.9124C69.0179 24.3087 68.2277 23.9611 67.3976 23.9458H58.9647C58.8152 23.9556 58.6665 23.9765 58.52 24.0083C57.814 24.1708 57.1841 24.5725 56.7348 25.147C56.2854 25.7214 56.0436 26.434 56.0494 27.1666V41.5708C56.0373 42.4108 56.3546 43.2213 56.9319 43.825C57.5092 44.4287 58.2994 44.7763 59.1294 44.7916H70.14L70.4776 44.7666V41.0791L60.6118 41.075ZM59.6771 29.2625C59.6771 28.7442 59.8805 28.2471 60.2427 27.8807C60.6048 27.5142 61.096 27.3083 61.6082 27.3083H64.9023C65.4145 27.3083 65.9057 27.5142 66.2679 27.8807C66.6301 28.2471 66.8335 28.7442 66.8335 29.2625V32.0833C66.8335 32.2126 66.7828 32.3366 66.6924 32.428C66.6021 32.5194 66.4795 32.5708 66.3518 32.5708H60.1753C60.0475 32.5708 59.925 32.5194 59.8346 32.428C59.7443 32.3366 59.6935 32.2126 59.6935 32.0833L59.6771 29.2625Z" fill="black"/>
<path d="M94.8541 23.9458H83.8435L83.5059 23.9708V27.6583H93.3882C93.6278 27.6649 93.855 27.7672 94.0201 27.9429C94.1853 28.1186 94.2749 28.3534 94.2694 28.5958V31.9291C94.2762 32.1663 94.1915 32.3969 94.0331 32.5719C93.8748 32.7469 93.6553 32.8526 93.4212 32.8666H86.4417C85.6412 32.924 84.8927 33.2893 84.3498 33.8874C83.8069 34.4856 83.5109 35.2713 83.5223 36.0833V41.5541C83.5102 42.3941 83.8275 43.2047 84.4048 43.8084C84.9821 44.412 85.7723 44.7596 86.6023 44.775H95.0353C95.1848 44.7651 95.3334 44.7442 95.48 44.7125C96.186 44.55 96.8159 44.1482 97.2652 43.5738C97.7146 42.9993 97.9564 42.2867 97.9506 41.5541V27.1666C97.9566 26.7493 97.8812 26.3349 97.7288 25.9471C97.5763 25.5593 97.3498 25.2057 97.0622 24.9066C96.7746 24.6075 96.4316 24.3686 96.0527 24.2038C95.6738 24.0389 95.2665 23.9512 94.8541 23.9458ZM94.3229 40.9416C94.3229 41.0709 94.2722 41.1949 94.1818 41.2863C94.0915 41.3778 93.9689 41.4291 93.8412 41.4291H89.1059C88.5937 41.4291 88.1025 41.2232 87.7403 40.8568C87.3782 40.4903 87.1747 39.9932 87.1747 39.475V37.8916C87.1747 37.6667 87.2185 37.4441 87.3035 37.2363C87.3886 37.0285 87.5132 36.8397 87.6704 36.6807C87.8275 36.5217 88.0141 36.3955 88.2194 36.3095C88.4247 36.2234 88.6448 36.1791 88.867 36.1791H93.8412C93.9686 36.1802 94.0905 36.2319 94.1806 36.3231C94.2707 36.4143 94.3218 36.5377 94.3229 36.6666V40.9416Z" fill="black"/>
</g>
<defs>
<clipPath id="clip0_38_2063">
<rect width="98" height="60" fill="white"/>
</clipPath>
</defs>
</svg>
