<svg width="128" height="128" viewBox="0 0 128 128" fill="none" xmlns="http://www.w3.org/2000/svg">
<rect width="128" height="128" fill="white"/>
<ellipse cx="53" cy="37" rx="29" ry="28" fill="#EB5B35"/>
<path d="M87.5 37C87.5 52.1636 74.5412 64.5 58.5 64.5C42.4588 64.5 29.5 52.1636 29.5 37C29.5 21.8364 42.4588 9.5 58.5 9.5C74.5412 9.5 87.5 21.8364 87.5 37Z" stroke="black"/>
<path d="M74.5 37C74.5 45.546 67.3512 52.5 58.5 52.5C49.6488 52.5 42.5 45.546 42.5 37C42.5 28.454 49.6488 21.5 58.5 21.5C67.3512 21.5 74.5 28.454 74.5 37Z" stroke="black"/>
<path d="M10 56C10 47.1634 17.1634 40 26 40H112V119H26C17.1634 119 10 111.837 10 103V56Z" fill="white"/>
<path d="M10.5 56C10.5 47.4396 17.4396 40.5 26 40.5H111.5V118.5H26C17.4396 118.5 10.5 111.56 10.5 103V56Z" stroke="black"/>
<path d="M22.5549 111.317C20.3549 110.405 18.5952 108.645 17.6829 106.445L18.1448 106.254C17.7295 105.252 17.5 104.153 17.5 103V100.65H17V95.95H17.5V91.25H17V86.55H17.5V81.85H17V77.15H17.5V72.45H17V67.75H17.5V63.05H17V58.35H17.5V56C17.5 54.8466 17.7295 53.748 18.1448 52.7464L17.6829 52.5549C18.5952 50.3549 20.3549 48.5952 22.5549 47.6829L22.7464 48.1448C23.748 47.7295 24.8466 47.5 26 47.5H28.3889V47H33.1667V47.5H37.9444V47H42.7222V47.5H47.5V47H52.2778V47.5H57.0555V47H61.8333V47.5H66.6111V47H71.3889V47.5H76.1667V47H80.9444V47.5H85.7222V47H90.5V47.5H95.2778V47H100.056V47.5H104.833V47H109.611V47.5H111.5V49.3214H112V53.9643H111.5V58.6071H112V63.25H111.5V67.8929H112V72.5357H111.5V77.1786H112V81.8214H111.5V86.4643H112V91.1071H111.5V95.75H112V100.393H111.5V105.036H112V109.679H111.5V111.5H109.611V112H104.833V111.5H100.056V112H95.2778V111.5H90.5V112H85.7222V111.5H80.9445V112H76.1667V111.5H71.3889V112H66.6111V111.5H61.8333V112H57.0556V111.5H52.2778V112H47.5V111.5H42.7222V112H37.9444V111.5H33.1667V112H28.3889V111.5H26C24.8465 111.5 23.748 111.271 22.7464 110.855L22.5549 111.317Z" stroke="black" stroke-dasharray="5 5"/>
<rect x="82" y="65" width="33" height="29" fill="#EB5B35"/>
<rect x="85.5" y="65.5" width="33" height="28" stroke="black"/>
</svg>
