<svg width="128" height="128" viewBox="0 0 128 128" fill="none" xmlns="http://www.w3.org/2000/svg">
<rect width="128" height="128" fill="white"/>
<path d="M46.0723 40.0233C46.0723 52.1864 24.2229 85.2289 24.2229 85.2289C24.2229 85.2289 2.37349 52.1864 2.37349 40.0233C2.37349 27.8602 12.1558 18 24.2229 18C36.29 18 46.0723 27.8602 46.0723 40.0233Z" fill="#EB5B35"/>
<path d="M47.7895 30.1449C56.0554 22.6009 67.0537 18 79.1265 18C104.808 18 125.626 38.8188 125.626 64.5C125.626 90.1812 104.808 111 79.1265 111C57.3083 111 38.9998 95.9734 33.9854 75.7048" stroke="black"/>
<path d="M78.5663 18V111" stroke="black"/>
<path d="M125.626 65.0602H40.4699" stroke="black"/>
<path d="M50.0542 40.0233C50.0542 42.953 48.7277 47.216 46.6802 52.022C44.6417 56.8071 41.92 62.0604 39.193 66.9435C36.4668 71.825 33.74 76.3282 31.6944 79.6116C30.6717 81.253 29.8196 82.5891 29.2233 83.5145C29.0194 83.831 28.8454 84.0995 28.7048 84.3157C28.5642 84.0995 28.3902 83.831 28.1863 83.5145C27.59 82.5891 26.7379 81.253 25.7152 79.6116C23.6696 76.3282 20.9428 71.825 18.2167 66.9435C15.4896 62.0604 12.7679 56.8071 10.7294 52.022C8.68194 47.216 7.35542 42.953 7.35542 40.0233C7.35542 28.1326 16.9176 18.5 28.7048 18.5C40.492 18.5 50.0542 28.1326 50.0542 40.0233Z" stroke="black"/>
<circle cx="28.7048" cy="39.8494" r="10.1446" stroke="black"/>
<path d="M100.476 64.5C100.476 77.2823 97.978 88.83 93.9619 97.1634C89.9287 105.532 84.4534 110.5 78.5663 110.5C72.6791 110.5 67.2039 105.532 63.1707 97.1634C59.1546 88.83 56.6566 77.2823 56.6566 64.5C56.6566 51.7177 59.1546 40.17 63.1707 31.8366C67.2039 23.4678 72.6791 18.5 78.5663 18.5C84.4534 18.5 89.9287 23.4678 93.9619 31.8366C97.978 40.17 100.476 51.7177 100.476 64.5Z" stroke="black"/>
<path d="M116.663 36.4269C108.202 40.8796 94.5401 43.771 79.1265 43.771C68.0976 43.771 57.9655 42.2906 49.994 39.8172" stroke="black"/>
<path d="M116.102 93.4047C107.606 89.1162 94.2043 86.3494 79.1265 86.3494C64.376 86.3494 51.2296 88.9973 42.7108 93.1275" stroke="black"/>
</svg>
