<svg width="128" height="128" viewBox="0 0 128 128" fill="none" xmlns="http://www.w3.org/2000/svg">
<path d="M14.5 12.5H113.5V80.5H14.5V12.5Z" stroke="black"/>
<path d="M53.9508 80.5L46.6193 114.5H82.3632L74.0602 80.5H53.9508Z" stroke="black"/>
<circle cx="64" cy="98" r="6.5" stroke="black"/>
<rect x="41" y="114" width="46" height="1" fill="black"/>
<rect x="15" y="68" width="99" height="1" fill="black"/>
<path d="M45.5691 42.712C47.2491 43.244 48.5651 44.14 49.5171 45.4C50.4691 46.632 50.9451 48.158 50.9451 49.978C50.9451 52.554 49.9371 54.542 47.9211 55.942C45.9331 57.314 43.0211 58 39.1851 58H23.9811V28.6H38.3451C41.9291 28.6 44.6731 29.286 46.5771 30.658C48.5091 32.03 49.4751 33.892 49.4751 36.244C49.4751 37.672 49.1251 38.946 48.4251 40.066C47.7531 41.186 46.8011 42.068 45.5691 42.712ZM30.7431 33.724V40.654H37.5051C39.1851 40.654 40.4591 40.36 41.3271 39.772C42.1951 39.184 42.6291 38.316 42.6291 37.168C42.6291 36.02 42.1951 35.166 41.3271 34.606C40.4591 34.018 39.1851 33.724 37.5051 33.724H30.7431ZM38.6811 52.876C40.4731 52.876 41.8171 52.582 42.7131 51.994C43.6371 51.406 44.0991 50.496 44.0991 49.264C44.0991 46.828 42.2931 45.61 38.6811 45.61H30.7431V52.876H38.6811ZM56.0964 28.6H62.9004V58H56.0964V28.6ZM96.6316 58L96.5896 40.36L87.9376 54.892H84.8716L76.2616 40.738V58H69.8776V28.6H75.5056L86.5096 46.87L97.3456 28.6H102.932L103.016 58H96.6316Z" fill="#EB5B35"/>
<path d="M47.5691 42.712L47.1059 41.8258L44.9752 42.9395L47.2672 43.6653L47.5691 42.712ZM51.5171 45.4L50.7192 46.0029L50.7258 46.0114L51.5171 45.4ZM49.9211 55.942L50.4891 56.765L50.4915 56.7634L49.9211 55.942ZM25.9811 58H24.9811V59H25.9811V58ZM25.9811 28.6V27.6H24.9811V28.6H25.9811ZM48.5771 30.658L47.9925 31.4693L47.9981 31.4733L48.5771 30.658ZM50.4251 40.066L49.5771 39.536L49.5723 39.5437L49.5676 39.5515L50.4251 40.066ZM32.7431 33.724V32.724H31.7431V33.724H32.7431ZM32.7431 40.654H31.7431V41.654H32.7431V40.654ZM43.3271 34.606L42.7663 35.4339L42.7756 35.4402L42.785 35.4463L43.3271 34.606ZM44.7131 51.994L44.1762 51.1503L44.1645 51.158L44.7131 51.994ZM32.7431 45.61V44.61H31.7431V45.61H32.7431ZM32.7431 52.876H31.7431V53.876H32.7431V52.876ZM47.2672 43.6653C48.7735 44.1423 49.9066 44.9272 50.7193 46.0028L52.315 44.7972C51.2237 43.3528 49.7248 42.3457 47.871 41.7587L47.2672 43.6653ZM50.7258 46.0114C51.5205 47.0399 51.9451 48.3404 51.9451 49.978H53.9451C53.9451 47.9756 53.4177 46.2241 52.3084 44.7886L50.7258 46.0114ZM51.9451 49.978C51.9451 52.2456 51.0822 53.9182 49.3507 55.1206L50.4915 56.7634C52.7921 55.1658 53.9451 52.8624 53.9451 49.978H51.9451ZM49.3531 55.119C47.6041 56.3261 44.928 57 41.1851 57V59C45.1142 59 48.2622 58.3019 50.4891 56.765L49.3531 55.119ZM41.1851 57H25.9811V59H41.1851V57ZM26.9811 58V28.6H24.9811V58H26.9811ZM25.9811 29.6H40.3451V27.6H25.9811V29.6ZM40.3451 29.6C43.8232 29.6 46.3272 30.2693 47.9925 31.4693L49.1617 29.8467C47.0191 28.3027 44.035 27.6 40.3451 27.6V29.6ZM47.9981 31.4733C49.6684 32.6595 50.4751 34.2188 50.4751 36.244H52.4751C52.4751 33.5652 51.3499 31.4005 49.1561 29.8427L47.9981 31.4733ZM50.4751 36.244C50.4751 37.5004 50.1697 38.5878 49.5771 39.536L51.2731 40.596C52.0805 39.3042 52.4751 37.8436 52.4751 36.244H50.4751ZM49.5676 39.5515C48.9965 40.5034 48.1857 41.2613 47.1059 41.8258L48.0324 43.5982C49.4166 42.8747 50.5098 41.8686 51.2826 40.5805L49.5676 39.5515ZM31.7431 33.724V40.654H33.7431V33.724H31.7431ZM32.7431 41.654H39.5051V39.654H32.7431V41.654ZM39.5051 41.654C41.2748 41.654 42.7821 41.3491 43.888 40.5999L42.7663 38.9441C42.1362 39.3709 41.0954 39.654 39.5051 39.654V41.654ZM43.888 40.5999C45.06 39.806 45.6291 38.6106 45.6291 37.168H43.6291C43.6291 38.0214 43.3303 38.562 42.7663 38.9441L43.888 40.5999ZM45.6291 37.168C45.6291 35.7251 45.0584 34.5329 43.8692 33.7657L42.785 35.4463C43.3319 35.7991 43.6291 36.3149 43.6291 37.168H45.6291ZM43.888 33.7781C42.7821 33.0289 41.2748 32.724 39.5051 32.724V34.724C41.0954 34.724 42.1362 35.0071 42.7663 35.4339L43.888 33.7781ZM39.5051 32.724H32.7431V34.724H39.5051V32.724ZM40.6811 53.876C42.5507 53.876 44.1265 53.5751 45.2618 52.83L44.1645 51.158C43.5077 51.5889 42.3956 51.876 40.6811 51.876V53.876ZM45.25 52.8377C46.5026 52.0405 47.0991 50.7874 47.0991 49.264H45.0991C45.0991 50.2046 44.7716 50.7715 44.1762 51.1503L45.25 52.8377ZM47.0991 49.264C47.0991 47.7596 46.5185 46.5137 45.3038 45.6944C44.1591 44.9225 42.5681 44.61 40.6811 44.61V46.61C42.4061 46.61 43.5241 46.9065 44.1855 47.3526C44.7767 47.7513 45.0991 48.3324 45.0991 49.264H47.0991ZM40.6811 44.61H32.7431V46.61H40.6811V44.61ZM31.7431 45.61V52.876H33.7431V45.61H31.7431ZM32.7431 53.876H40.6811V51.876H32.7431V53.876ZM58.0964 28.6V27.6H57.0964V28.6H58.0964ZM64.9004 28.6H65.9004V27.6H64.9004V28.6ZM64.9004 58V59H65.9004V58H64.9004ZM58.0964 58H57.0964V59H58.0964V58ZM58.0964 29.6H64.9004V27.6H58.0964V29.6ZM63.9004 28.6V58H65.9004V28.6H63.9004ZM64.9004 57H58.0964V59H64.9004V57ZM59.0964 58V28.6H57.0964V58H59.0964ZM98.6316 58L97.6316 58.0024L97.634 59H98.6316V58ZM98.5896 40.36L99.5896 40.3576L99.581 36.7401L97.7304 39.8484L98.5896 40.36ZM89.9376 54.892V55.892H90.506L90.7968 55.4036L89.9376 54.892ZM86.8716 54.892L86.0173 55.4117L86.3094 55.892H86.8716V54.892ZM78.2616 40.738L79.1159 40.2183L77.2616 37.1699V40.738H78.2616ZM78.2616 58V59H79.2616V58H78.2616ZM71.8776 58H70.8776V59H71.8776V58ZM71.8776 28.6V27.6H70.8776V28.6H71.8776ZM77.5056 28.6L78.3622 28.0841L78.0707 27.6H77.5056V28.6ZM88.5096 46.87L87.653 47.3859L88.5162 48.8192L89.3697 47.3801L88.5096 46.87ZM99.3456 28.6V27.6H98.776L98.4855 28.0899L99.3456 28.6ZM104.932 28.6L105.932 28.5971L105.929 27.6H104.932V28.6ZM105.016 58V59H106.018L106.016 57.9971L105.016 58ZM99.6316 57.9976L99.5896 40.3576L97.5896 40.3624L97.6316 58.0024L99.6316 57.9976ZM97.7304 39.8484L89.0784 54.3804L90.7968 55.4036L99.4488 40.8716L97.7304 39.8484ZM89.9376 53.892H86.8716V55.892H89.9376V53.892ZM87.7259 54.3723L79.1159 40.2183L77.4073 41.2577L86.0173 55.4117L87.7259 54.3723ZM77.2616 40.738V58H79.2616V40.738H77.2616ZM78.2616 57H71.8776V59H78.2616V57ZM72.8776 58V28.6H70.8776V58H72.8776ZM71.8776 29.6H77.5056V27.6H71.8776V29.6ZM76.649 29.1159L87.653 47.3859L89.3662 46.3541L78.3622 28.0841L76.649 29.1159ZM89.3697 47.3801L100.206 29.1101L98.4855 28.0899L87.6495 46.3599L89.3697 47.3801ZM99.3456 29.6H104.932V27.6H99.3456V29.6ZM103.932 28.6029L104.016 58.0029L106.016 57.9971L105.932 28.5971L103.932 28.6029ZM105.016 57H98.6316V59H105.016V57Z" fill="black"/>
</svg>
