<svg width="32" height="32" viewBox="0 0 32 32" fill="none" xmlns="http://www.w3.org/2000/svg">
<path d="M27.45 15.11L5.45 4.11001C5.27757 4.02377 5.08389 3.98922 4.89228 4.01051C4.70067 4.0318 4.51929 4.10803 4.37 4.23001C4.22742 4.3495 4.12101 4.50639 4.06271 4.68305C4.00441 4.85971 3.99655 5.04912 4.04 5.23001L7 16L4 26.74C3.95923 26.8911 3.95447 27.0496 3.9861 27.2028C4.01774 27.356 4.08489 27.4997 4.18216 27.6223C4.27942 27.7448 4.40409 27.8428 4.54613 27.9084C4.68818 27.9741 4.84363 28.0054 5 28C5.15654 27.9991 5.31068 27.9614 5.45 27.89L27.45 16.89C27.6138 16.8061 27.7513 16.6786 27.8473 16.5216C27.9432 16.3645 27.994 16.1841 27.994 16C27.994 15.816 27.9432 15.6355 27.8473 15.4785C27.7513 15.3214 27.6138 15.1939 27.45 15.11ZM6.55 25.11L8.76 17H18V15H8.76L6.55 6.89001L24.76 16L6.55 25.11Z" fill="black"/>
</svg>
